<mxfile host="app.diagrams.net" modified="2024-03-13T09:09:41.226Z" agent="Mozilla/5.0 (Windows NT 10.0; Win64; x64) AppleWebKit/537.36 (KHTML, like Gecko) Chrome/122.0.0.0 Safari/537.36" etag="tx35aADD3dlzEsKz_Qgb" version="24.0.4" type="github">
  <diagram name="第 1 页" id="Ikq1BB9ZllZFQlIQwh-f">
    <mxGraphModel dx="1877" dy="-1808" grid="1" gridSize="10" guides="1" tooltips="1" connect="1" arrows="1" fold="1" page="1" pageScale="1" pageWidth="827" pageHeight="1169" math="0" shadow="0">
      <root>
        <mxCell id="0" />
        <mxCell id="1" parent="0" />
        <mxCell id="ZnYl_2Ia_9ISwQ6fzSJR-1" style="rounded=0;orthogonalLoop=1;jettySize=auto;html=1;exitX=1;exitY=0.5;exitDx=0;exitDy=0;entryX=0;entryY=0.5;entryDx=0;entryDy=0;" edge="1" parent="1" source="ZnYl_2Ia_9ISwQ6fzSJR-2" target="ZnYl_2Ia_9ISwQ6fzSJR-13">
          <mxGeometry relative="1" as="geometry" />
        </mxCell>
        <mxCell id="ZnYl_2Ia_9ISwQ6fzSJR-2" value="IM消息" style="ellipse;whiteSpace=wrap;html=1;" vertex="1" parent="1">
          <mxGeometry x="-740" y="2620" width="120" height="80" as="geometry" />
        </mxCell>
        <mxCell id="ZnYl_2Ia_9ISwQ6fzSJR-3" style="edgeStyle=orthogonalEdgeStyle;rounded=0;orthogonalLoop=1;jettySize=auto;html=1;exitX=1;exitY=0.5;exitDx=0;exitDy=0;entryX=0;entryY=0.5;entryDx=0;entryDy=0;" edge="1" parent="1" source="ZnYl_2Ia_9ISwQ6fzSJR-4" target="ZnYl_2Ia_9ISwQ6fzSJR-5">
          <mxGeometry relative="1" as="geometry" />
        </mxCell>
        <mxCell id="ZnYl_2Ia_9ISwQ6fzSJR-4" value="redux更新" style="ellipse;whiteSpace=wrap;html=1;" vertex="1" parent="1">
          <mxGeometry x="-520" y="2520" width="120" height="80" as="geometry" />
        </mxCell>
        <mxCell id="ZnYl_2Ia_9ISwQ6fzSJR-5" value="TextRoom" style="swimlane;startSize=20;horizontal=1;containerType=tree;" vertex="1" parent="1">
          <mxGeometry x="-300" y="2470" width="550" height="180" as="geometry" />
        </mxCell>
        <mxCell id="ZnYl_2Ia_9ISwQ6fzSJR-6" value="" style="edgeStyle=elbowEdgeStyle;elbow=vertical;sourcePerimeterSpacing=0;targetPerimeterSpacing=0;startArrow=none;endArrow=none;rounded=0;curved=0;" edge="1" parent="ZnYl_2Ia_9ISwQ6fzSJR-5" source="ZnYl_2Ia_9ISwQ6fzSJR-7" target="ZnYl_2Ia_9ISwQ6fzSJR-8">
          <mxGeometry relative="1" as="geometry" />
        </mxCell>
        <mxCell id="ZnYl_2Ia_9ISwQ6fzSJR-7" value="willReceiveProps" style="whiteSpace=wrap;html=1;treeFolding=1;treeMoving=1;newEdgeStyle={&quot;edgeStyle&quot;:&quot;elbowEdgeStyle&quot;,&quot;startArrow&quot;:&quot;none&quot;,&quot;endArrow&quot;:&quot;none&quot;};" vertex="1" parent="ZnYl_2Ia_9ISwQ6fzSJR-5">
          <mxGeometry x="30" y="60" width="120" height="40" as="geometry" />
        </mxCell>
        <mxCell id="ZnYl_2Ia_9ISwQ6fzSJR-8" value="render" style="whiteSpace=wrap;html=1;treeFolding=1;treeMoving=1;newEdgeStyle={&quot;edgeStyle&quot;:&quot;elbowEdgeStyle&quot;,&quot;startArrow&quot;:&quot;none&quot;,&quot;endArrow&quot;:&quot;none&quot;};" vertex="1" parent="ZnYl_2Ia_9ISwQ6fzSJR-5">
          <mxGeometry x="220" y="60" width="120" height="40" as="geometry" />
        </mxCell>
        <mxCell id="ZnYl_2Ia_9ISwQ6fzSJR-9" value="消息数+1时，标记是否在底部 (isBottom)" style="text;html=1;align=center;verticalAlign=middle;whiteSpace=wrap;rounded=0;" vertex="1" parent="ZnYl_2Ia_9ISwQ6fzSJR-5">
          <mxGeometry x="20" y="120" width="140" height="10" as="geometry" />
        </mxCell>
        <mxCell id="ZnYl_2Ia_9ISwQ6fzSJR-10" value="" style="edgeStyle=elbowEdgeStyle;elbow=vertical;sourcePerimeterSpacing=0;targetPerimeterSpacing=0;startArrow=none;endArrow=none;rounded=0;curved=0;" edge="1" parent="ZnYl_2Ia_9ISwQ6fzSJR-5" source="ZnYl_2Ia_9ISwQ6fzSJR-8" target="ZnYl_2Ia_9ISwQ6fzSJR-11">
          <mxGeometry relative="1" as="geometry">
            <mxPoint x="-150" y="2570" as="sourcePoint" />
          </mxGeometry>
        </mxCell>
        <mxCell id="ZnYl_2Ia_9ISwQ6fzSJR-11" value="didUpdate" style="whiteSpace=wrap;html=1;treeFolding=1;treeMoving=1;newEdgeStyle={&quot;edgeStyle&quot;:&quot;elbowEdgeStyle&quot;,&quot;startArrow&quot;:&quot;none&quot;,&quot;endArrow&quot;:&quot;none&quot;};" vertex="1" parent="ZnYl_2Ia_9ISwQ6fzSJR-5">
          <mxGeometry x="380" y="60" width="120" height="40" as="geometry" />
        </mxCell>
        <mxCell id="ZnYl_2Ia_9ISwQ6fzSJR-12" value="判断滚动底部&lt;br&gt;判断消息是否大于200条，大于则裁剪剩最后100条" style="text;html=1;align=center;verticalAlign=middle;whiteSpace=wrap;rounded=0;" vertex="1" parent="ZnYl_2Ia_9ISwQ6fzSJR-5">
          <mxGeometry x="380" y="120" width="120" height="30" as="geometry" />
        </mxCell>
        <mxCell id="ZnYl_2Ia_9ISwQ6fzSJR-13" value="messageCache更新" style="ellipse;whiteSpace=wrap;html=1;" vertex="1" parent="1">
          <mxGeometry x="-533" y="2700" width="120" height="80" as="geometry" />
        </mxCell>
        <mxCell id="ZnYl_2Ia_9ISwQ6fzSJR-14" style="rounded=0;orthogonalLoop=1;jettySize=auto;html=1;exitX=1;exitY=0.5;exitDx=0;exitDy=0;entryX=0;entryY=0.5;entryDx=0;entryDy=0;" edge="1" parent="1" source="ZnYl_2Ia_9ISwQ6fzSJR-2" target="ZnYl_2Ia_9ISwQ6fzSJR-4">
          <mxGeometry relative="1" as="geometry" />
        </mxCell>
        <mxCell id="ZnYl_2Ia_9ISwQ6fzSJR-15" value="判断在当前频道/ 判断实时模式" style="text;html=1;align=center;verticalAlign=middle;whiteSpace=wrap;rounded=0;" vertex="1" parent="1">
          <mxGeometry x="-580" y="2610" width="180" height="20" as="geometry" />
        </mxCell>
        <mxCell id="ZnYl_2Ia_9ISwQ6fzSJR-16" value="判断实时模式" style="text;html=1;align=center;verticalAlign=middle;whiteSpace=wrap;rounded=0;" vertex="1" parent="1">
          <mxGeometry x="-580" y="2670" width="80" height="30" as="geometry" />
        </mxCell>
      </root>
    </mxGraphModel>
  </diagram>
</mxfile>
